<svg xmlns="http://www.w3.org/2000/svg" width="244.006" height="51.247" viewBox="0 0 244.006 51.247"><g transform="translate(0 0)"><path d="M19.41,16.22a.818.818,0,0,1-.362.643l-5.023,2.893V8.585L4.3,2.959,9.323.065a.769.769,0,0,1,.723,0L19.37,5.45V16.22Zm-7.555-6.39L5.224,5.973a.769.769,0,0,0-.723,0L0,8.585l6.992,4.059v8.077l4.5-2.572a.818.818,0,0,0,.362-.643V9.831ZM0,16.662l4.862,2.813V13.849Z" transform="translate(0 0.025)" fill="#5ce500"/><g transform="translate(24.795 5.475)"><path d="M66.964,13.6H61.7V27.906h2.331V22.28H67c3.215,0,4.983-1.567,4.983-4.42-.04-1.246-.522-4.26-5.023-4.26m2.612,4.34c0,1.607-.844,2.291-2.893,2.291H64.031v-4.5H67c1.728,0,2.572.723,2.572,2.21M78.94,17.5l.161.08-.4,2.13-.281-.08a2.041,2.041,0,0,0-.683-.121c-2.17,0-2.371,1.728-2.371,3.858v4.541h-2.17V17.418h2.049V18.7a2.855,2.855,0,0,1,2.09-1.407,2.972,2.972,0,0,1,1.607.2m5.3-.281a4.5,4.5,0,0,0-3.938,1.889,6.283,6.283,0,0,0-1.045,3.617c0,3.335,1.969,5.465,5.023,5.465,3.7,0,5.023-2.974,5.023-5.546a5.852,5.852,0,0,0-1.246-3.777,4.726,4.726,0,0,0-3.818-1.648m0,9c-1.688,0-2.773-1.366-2.773-3.536,0-2.21,1.045-3.577,2.773-3.577,1.688,0,2.773,1.366,2.773,3.536.04,2.21-1.045,3.577-2.773,3.577m23.268-8.72.161.08-.4,2.13-.281-.08a2.041,2.041,0,0,0-.683-.121c-2.17,0-2.371,1.728-2.371,3.858v4.541h-2.17V17.418h2.049V18.7a2.96,2.96,0,0,1,3.7-1.206m7.8,7.033-.04.121a2.307,2.307,0,0,1-2.371,1.567,2.733,2.733,0,0,1-2.813-2.853h7.434l.04-.2a5.939,5.939,0,0,0,.04-.844v-.2c-.121-2.934-2.009-4.9-4.782-4.9A4.617,4.617,0,0,0,109,19.025a6.173,6.173,0,0,0-1.125,3.657c0,3.255,2.009,5.425,5.023,5.425a4.264,4.264,0,0,0,4.5-3.335l.08-.241h-2.17Zm-5.1-3.054a2.531,2.531,0,0,1,2.612-2.371,2.455,2.455,0,0,1,2.532,2.371ZM97.867,18.3a3.692,3.692,0,0,0-2.773-1.085c-3.175,0-4.621,2.813-4.621,5.425,0,2.652,1.447,5.385,4.621,5.385a3.727,3.727,0,0,0,2.692-1.085,7.49,7.49,0,0,1-.04,1.085c-.121,1.728-.964,2.532-2.612,2.532-.924,0-1.969-.321-2.17-1.246l-.04-.2h-2.13l.04.281c.241,1.849,1.849,3.014,4.26,3.014a4.5,4.5,0,0,0,4.34-2.291,7.235,7.235,0,0,0,.522-3.134V17.418H97.907V18.3Zm-2.652,7.716c-.764,0-2.532-.362-2.532-3.536,0-2.09,1-3.376,2.572-3.376,1.246,0,2.532.884,2.532,3.376,0,2.25-.964,3.536-2.572,3.536m32.39-1.246c0,1.688-1.407,3.376-4.5,3.376-2.733,0-4.38-1.206-4.581-3.335l-.04-.241h2.13l.04.161c.281,1.286,1.487,1.567,2.492,1.567,1.085,0,2.25-.362,2.25-1.326,0-.482-.321-.844-.964-1.045-.362-.121-.844-.241-1.326-.362-.844-.241-1.728-.482-2.25-.683a2.764,2.764,0,0,1-2.09-2.532c0-2.13,2.049-3.054,4.1-3.054,2.733,0,4.139,1.045,4.34,3.134v.2h-2.09l-.04-.161c-.2-1.206-1.407-1.406-2.13-1.406-.6,0-2.009.121-2.009,1.125,0,.442.4.8,1.206,1.045.241.08.6.161,1,.281.844.241,1.929.482,2.451.683a2.531,2.531,0,0,1,2.009,2.572m10.046,0c0,1.688-1.407,3.376-4.5,3.376-2.733,0-4.38-1.206-4.581-3.335l-.04-.241h2.13l.04.161c.281,1.286,1.487,1.567,2.492,1.567,1.085,0,2.25-.362,2.25-1.326,0-.482-.321-.844-.964-1.045-.362-.121-.844-.241-1.326-.362-.844-.241-1.728-.482-2.25-.683a2.764,2.764,0,0,1-2.09-2.532c0-2.13,2.049-3.054,4.1-3.054,2.733,0,4.139,1.045,4.34,3.134v.2h-2.09l-.04-.161c-.2-1.206-1.406-1.406-2.13-1.406-.6,0-2.009.121-2.009,1.125,0,.442.4.8,1.206,1.045.241.08.6.161,1,.281.844.241,1.929.482,2.451.683a2.531,2.531,0,0,1,2.009,2.572" transform="translate(-61.7 -13.6)" fill="#4b4e52"/><path d="M252.787,21.474a1.483,1.483,0,0,1-1.487-1.487,1.458,1.458,0,0,1,1.487-1.487,1.483,1.483,0,0,1,1.487,1.487,1.509,1.509,0,0,1-1.487,1.487m0-2.733a1.246,1.246,0,1,0,1.206,1.246,1.218,1.218,0,0,0-1.206-1.246m-.2,1.527v.482h-.442V19.183h.723a.508.508,0,0,1,.563.563.485.485,0,0,1-.321.482l.362.563h-.482l-.322-.482h-.08Zm.241-.723h-.241v.362h.241a.184.184,0,0,0,.2-.161c.04-.121-.04-.2-.2-.2" transform="translate(-175.108 -16.531)" fill="#4b4e52"/></g><g transform="translate(24.888 31.964)"><g transform="translate(0)"><g transform="translate(0 0.072)"><path d="M265,14.2h11.758v1.114h-5.281V28.64h-1.2V15.314H265Z" transform="translate(-265 -13.334)" fill="#4b4e52"/><path d="M294.892,33.219a4.119,4.119,0,0,0,2.929-1.031v1.155a4.8,4.8,0,0,1-3.053.908c-2.929,0-4.868-2.063-4.868-5.322,0-3.218,1.733-5.528,4.5-5.528,2.723,0,4.126,2.063,4.126,5.116v.413h-7.509C291.1,31.734,292.747,33.219,294.892,33.219Zm-3.754-5.281h6.312c-.083-1.815-.949-3.548-3.012-3.548C292.747,24.431,291.426,25.71,291.138,27.938Z" transform="translate(-279.627 -18.738)" fill="#4b4e52"/><path d="M316.3,27.406h-1.2V12.1h1.2Z" transform="translate(-294.431 -12.1)" fill="#4b4e52"/><path d="M327.192,33.219a4.119,4.119,0,0,0,2.929-1.031v1.155a4.8,4.8,0,0,1-3.053.908c-2.929,0-4.868-2.063-4.868-5.322,0-3.218,1.733-5.528,4.5-5.528,2.723,0,4.126,2.063,4.126,5.116v.413h-7.509C323.4,31.734,325.047,33.219,327.192,33.219Zm-3.754-5.281h6.312c-.083-1.815-.949-3.548-3.012-3.548C325.047,24.431,323.726,25.71,323.438,27.938Z" transform="translate(-298.602 -18.738)" fill="#4b4e52"/><path d="M352.309,24.62a2.292,2.292,0,0,0-.949-.206,3.035,3.035,0,0,0-2.764,2.269v7.3h-1.2V23.548h1.2V25.2a3.15,3.15,0,0,1,2.805-1.9,3.974,3.974,0,0,1,.908.124Z" transform="translate(-313.405 -18.679)" fill="#4b4e52"/><path d="M362.684,15.868a.783.783,0,0,1-.784-.784.784.784,0,1,1,1.568,0A.759.759,0,0,1,362.684,15.868Zm.578,12.831h-1.2V18.261h1.2Z" transform="translate(-321.923 -13.392)" fill="#4b4e52"/><path d="M378.986,27.406h-1.444L372.1,22.043v5.363h-1.2V12.1h1.2v9.406l5.281-4.579H378.9l-5.57,4.786Z" transform="translate(-327.21 -12.1)" fill="#4b4e52"/><path d="M410.1,28.64V14.2h8.375v1.114H411.3V20.8H418.1v1.073H411.3V28.64Z" transform="translate(-350.238 -13.334)" fill="#4b4e52"/><path d="M434.584,15.868a.783.783,0,0,1-.784-.784.784.784,0,0,1,1.568,0A.783.783,0,0,1,434.584,15.868Zm.578,12.831h-1.2V18.261h1.2Z" transform="translate(-364.16 -13.392)" fill="#4b4e52"/><path d="M449.039,25.838a4,4,0,0,1-3.259,1.774c-3.094,0-4.579-2.558-4.579-5.446s1.485-5.446,4.579-5.446a4.063,4.063,0,0,1,3.259,1.774V12.1h1.155V27.406h-1.155Zm0-5.941a3.613,3.613,0,0,0-3.135-2.063c-2.187,0-3.466,1.815-3.466,4.332S443.717,26.5,445.9,26.5a3.566,3.566,0,0,0,3.135-2.063Z" transform="translate(-368.507 -12.1)" fill="#4b4e52"/><path d="M475.039,25.838a4,4,0,0,1-3.259,1.774c-3.094,0-4.579-2.558-4.579-5.446s1.485-5.446,4.579-5.446a4.063,4.063,0,0,1,3.259,1.774V12.1h1.155V27.406h-1.155Zm0-5.941a3.613,3.613,0,0,0-3.135-2.063c-2.187,0-3.465,1.815-3.465,4.332S469.717,26.5,471.9,26.5a3.566,3.566,0,0,0,3.135-2.063Z" transform="translate(-383.781 -12.1)" fill="#4b4e52"/><path d="M496,27.406h-1.2V12.1H496Z" transform="translate(-399.994 -12.1)" fill="#4b4e52"/><path d="M506.892,33.219a4.119,4.119,0,0,0,2.929-1.031v1.155a4.8,4.8,0,0,1-3.053.908c-2.929,0-4.868-2.063-4.868-5.322,0-3.218,1.733-5.528,4.5-5.528,2.723,0,4.126,2.063,4.126,5.116v.413h-7.509C503.1,31.734,504.747,33.219,506.892,33.219Zm-3.754-5.281h6.312c-.083-1.815-.949-3.548-3.012-3.548C504.747,24.431,503.426,25.71,503.138,27.938Z" transform="translate(-404.165 -18.738)" fill="#4b4e52"/><path d="M532.009,24.62a2.292,2.292,0,0,0-.949-.206,3.035,3.035,0,0,0-2.764,2.269v7.3h-1.2V23.548h1.2V25.2a3.15,3.15,0,0,1,2.805-1.9,3.974,3.974,0,0,1,.908.124Z" transform="translate(-418.969 -18.679)" fill="#4b4e52"/></g><path d="M394.926,21.553a1.523,1.523,0,0,1-1.526-1.526,1.5,1.5,0,0,1,1.526-1.526,1.526,1.526,0,0,1,0,3.053m0-2.805a1.28,1.28,0,1,0,1.238,1.279,1.251,1.251,0,0,0-1.238-1.279m-.206,1.568v.5h-.454V19.2h.743a.522.522,0,0,1,.578.578.5.5,0,0,1-.33.5l.371.578h-.5l-.33-.5h-.083Zm.289-.743h-.248v.371h.248a.189.189,0,0,0,.206-.165.2.2,0,0,0-.206-.206" transform="translate(-340.428 -15.787)" fill="#4b4e52"/><path d="M542.3,19.6h1.815v.371h-.66V21.7H543V19.971h-.7Zm3.218,1.65-.619-.908v1.4h-.454V19.6h.413l.66.99.66-.99h.413v2.145h-.454v-1.4l-.578.908Z" transform="translate(-427.898 -16.434)" fill="#4b4e52"/><path d="M4.5-36.2v14.439h8.96V-22.87H5.679v-5.785h7.055V-29.76H5.679V-35.1h7.784V-36.2ZM19.741-21.765,23.88-32.206h-1.2l-3.433,8.818-3.433-8.818H14.568L18.73-21.765Zm6.02-5.126h7.5v-.423c0-3.034-1.411-5.1-4.139-5.1-2.775,0-4.515,2.3-4.515,5.526,0,3.269,1.952,5.338,4.868,5.338a4.666,4.666,0,0,0,3.034-.917v-1.152a4.179,4.179,0,0,1-2.939,1.035C27.407-22.588,25.761-24.069,25.761-26.891Zm3.363-4.492c2.069,0,2.939,1.693,3.01,3.527H25.808C26.09-30.113,27.407-31.383,29.124-31.383Zm11.123-.894a3,3,0,0,0-.917-.141,3.156,3.156,0,0,0-2.822,1.881v-1.67H35.332v10.441h1.176v-7.29a3.07,3.07,0,0,1,2.775-2.258,2.429,2.429,0,0,1,.964.188Zm4.021,14.509,5.738-14.439h-1.2l-3.433,8.842L41.94-32.206H40.694l4.092,10.3-1.693,4.139ZM57.555-32.206H56.59L54.1-23.6l-2.563-8.607H50.382l3.151,10.441h1.011l2.516-8.63,2.516,8.63h1.011l3.151-10.441H62.61L60.047-23.6Zm7.807,10.441h1.176v-7.313a3.5,3.5,0,0,1,3.128-2.258,2.511,2.511,0,0,1,2.681,2.822v6.749H73.5v-6.914a3.392,3.392,0,0,0-3.621-3.739,4.068,4.068,0,0,0-3.339,1.881V-37.05H65.362Zm11.288-5.126h7.5v-.423c0-3.034-1.411-5.1-4.139-5.1-2.775,0-4.515,2.3-4.515,5.526,0,3.269,1.952,5.338,4.868,5.338A4.666,4.666,0,0,0,83.4-22.47v-1.152a4.179,4.179,0,0,1-2.939,1.035C78.3-22.588,76.649-24.069,76.649-26.891Zm3.363-4.492c2.069,0,2.939,1.693,3.01,3.527H76.7C76.979-30.113,78.3-31.383,80.012-31.383Zm11.123-.894a3,3,0,0,0-.917-.141A3.156,3.156,0,0,0,87.4-30.536v-1.67H86.22v10.441H87.4v-7.29a3.07,3.07,0,0,1,2.775-2.258,2.429,2.429,0,0,1,.964.188Zm1.834,5.385h7.5v-.423c0-3.034-1.411-5.1-4.139-5.1-2.775,0-4.515,2.3-4.515,5.526,0,3.269,1.952,5.338,4.868,5.338a4.666,4.666,0,0,0,3.034-.917v-1.152a4.179,4.179,0,0,1-2.939,1.035C94.615-22.588,92.969-24.069,92.969-26.891Zm3.363-4.492c2.069,0,2.939,1.693,3.01,3.527H93.016C93.3-30.113,94.615-31.383,96.332-31.383Z" transform="translate(118.647 37.05)" fill="#4b4e52"/></g></g></g></svg>